<mxfile host="app.diagrams.net" agent="Mozilla/5.0 (Macintosh; Intel Mac OS X 10_15_7) AppleWebKit/605.1.15 (KHTML, like Gecko) Version/18.1 Safari/605.1.15" version="26.0.15">
  <diagram name="Page-1" id="c4acf3e9-155e-7222-9cf6-157b1a14988f">
    <mxGraphModel dx="1018" dy="627" grid="1" gridSize="10" guides="1" tooltips="1" connect="1" arrows="1" fold="1" page="1" pageScale="1" pageWidth="850" pageHeight="1100" background="none" math="0" shadow="0">
      <root>
        <mxCell id="0" />
        <mxCell id="1" parent="0" />
        <mxCell id="17acba5748e5396b-1" value="frame" style="shape=umlFrame;whiteSpace=wrap;html=1;rounded=0;shadow=0;comic=0;labelBackgroundColor=none;strokeWidth=1;fontFamily=Verdana;fontSize=10;align=center;" parent="1" vertex="1">
          <mxGeometry x="20" y="20" width="820" height="1060" as="geometry" />
        </mxCell>
        <mxCell id="uD1R6oR0ZTYKcdYJKy-3-1" value="Vehicle&lt;span style=&quot;white-space: pre;&quot;&gt;&#x9;&lt;/span&gt;" style="swimlane;fontStyle=1;align=center;verticalAlign=top;childLayout=stackLayout;horizontal=1;startSize=26;horizontalStack=0;resizeParent=1;resizeParentMax=0;resizeLast=0;collapsible=1;marginBottom=0;whiteSpace=wrap;html=1;" vertex="1" parent="1">
          <mxGeometry x="260" y="30" width="280" height="240" as="geometry" />
        </mxCell>
        <mxCell id="uD1R6oR0ZTYKcdYJKy-3-2" value="nrDoors: int &amp;nbsp; &amp;nbsp; &amp;nbsp; &amp;nbsp; &amp;nbsp; &amp;nbsp; &amp;nbsp; &amp;nbsp; &amp;nbsp; &amp;nbsp; &amp;nbsp; &amp;nbsp;x: double&lt;div&gt;enginePower: double &amp;nbsp; &amp;nbsp; &amp;nbsp; &amp;nbsp; y: double&lt;/div&gt;&lt;div&gt;currentSpeed: double &amp;nbsp; &amp;nbsp; &amp;nbsp; &amp;nbsp;direction: Direction&lt;/div&gt;&lt;div&gt;color: Color &amp;nbsp; &amp;nbsp; &amp;nbsp; &amp;nbsp; &amp;nbsp; &amp;nbsp; &amp;nbsp; &amp;nbsp; &amp;nbsp; &amp;nbsp; &amp;nbsp; &amp;nbsp;length: double&lt;/div&gt;&lt;div&gt;modelname: String &amp;nbsp; &amp;nbsp; &amp;nbsp; &amp;nbsp; &amp;nbsp; &amp;nbsp;loaded: boolean&lt;br&gt;&lt;div&gt;&lt;br&gt;&lt;/div&gt;&lt;/div&gt;" style="text;strokeColor=none;fillColor=none;align=left;verticalAlign=top;spacingLeft=4;spacingRight=4;overflow=hidden;rotatable=0;points=[[0,0.5],[1,0.5]];portConstraint=eastwest;whiteSpace=wrap;html=1;" vertex="1" parent="uD1R6oR0ZTYKcdYJKy-3-1">
          <mxGeometry y="26" width="280" height="74" as="geometry" />
        </mxCell>
        <mxCell id="uD1R6oR0ZTYKcdYJKy-3-48" value="" style="endArrow=block;dashed=1;endFill=0;endSize=12;html=1;rounded=0;" edge="1" parent="uD1R6oR0ZTYKcdYJKy-3-1" target="uD1R6oR0ZTYKcdYJKy-3-36">
          <mxGeometry width="160" relative="1" as="geometry">
            <mxPoint y="50" as="sourcePoint" />
            <mxPoint x="160" y="50" as="targetPoint" />
          </mxGeometry>
        </mxCell>
        <mxCell id="uD1R6oR0ZTYKcdYJKy-3-3" value="" style="line;strokeWidth=1;fillColor=none;align=left;verticalAlign=middle;spacingTop=-1;spacingLeft=3;spacingRight=3;rotatable=0;labelPosition=right;points=[];portConstraint=eastwest;strokeColor=inherit;" vertex="1" parent="uD1R6oR0ZTYKcdYJKy-3-1">
          <mxGeometry y="100" width="280" height="8" as="geometry" />
        </mxCell>
        <mxCell id="uD1R6oR0ZTYKcdYJKy-3-4" value="move: void &amp;nbsp; &amp;nbsp; &amp;nbsp; &amp;nbsp; &amp;nbsp; &amp;nbsp; &amp;nbsp; &amp;nbsp; &amp;nbsp; &amp;nbsp; &amp;nbsp; &amp;nbsp; &amp;nbsp; &amp;nbsp; &amp;nbsp; startEngine: void&lt;div&gt;turnRight: void &amp;nbsp; &amp;nbsp; &amp;nbsp; &amp;nbsp; &amp;nbsp; &amp;nbsp; &amp;nbsp; &amp;nbsp; &amp;nbsp; &amp;nbsp; &amp;nbsp; &amp;nbsp; stopEngine: void&lt;/div&gt;&lt;div&gt;turnLeft: void&lt;/div&gt;&lt;div&gt;gas: void&lt;/div&gt;&lt;div&gt;break: void&lt;/div&gt;&lt;div&gt;incrementSpeed: void&lt;/div&gt;&lt;div&gt;decrementSpeed: void&lt;/div&gt;&lt;div&gt;&lt;br&gt;&lt;/div&gt;" style="text;strokeColor=none;fillColor=none;align=left;verticalAlign=top;spacingLeft=4;spacingRight=4;overflow=hidden;rotatable=0;points=[[0,0.5],[1,0.5]];portConstraint=eastwest;whiteSpace=wrap;html=1;" vertex="1" parent="uD1R6oR0ZTYKcdYJKy-3-1">
          <mxGeometry y="108" width="280" height="132" as="geometry" />
        </mxCell>
        <mxCell id="uD1R6oR0ZTYKcdYJKy-3-5" value="Car" style="swimlane;fontStyle=1;align=center;verticalAlign=top;childLayout=stackLayout;horizontal=1;startSize=26;horizontalStack=0;resizeParent=1;resizeParentMax=0;resizeLast=0;collapsible=1;marginBottom=0;whiteSpace=wrap;html=1;" vertex="1" parent="1">
          <mxGeometry x="90" y="300" width="160" height="60" as="geometry" />
        </mxCell>
        <mxCell id="uD1R6oR0ZTYKcdYJKy-3-40" value="Extends" style="endArrow=block;endSize=16;endFill=0;html=1;rounded=0;entryX=-0.007;entryY=0.773;entryDx=0;entryDy=0;entryPerimeter=0;" edge="1" parent="uD1R6oR0ZTYKcdYJKy-3-5" target="uD1R6oR0ZTYKcdYJKy-3-4">
          <mxGeometry width="160" relative="1" as="geometry">
            <mxPoint x="100" as="sourcePoint" />
            <mxPoint x="170" y="-20" as="targetPoint" />
          </mxGeometry>
        </mxCell>
        <mxCell id="uD1R6oR0ZTYKcdYJKy-3-7" value="" style="line;strokeWidth=1;fillColor=none;align=left;verticalAlign=middle;spacingTop=-1;spacingLeft=3;spacingRight=3;rotatable=0;labelPosition=right;points=[];portConstraint=eastwest;strokeColor=inherit;" vertex="1" parent="uD1R6oR0ZTYKcdYJKy-3-5">
          <mxGeometry y="26" width="160" height="34" as="geometry" />
        </mxCell>
        <mxCell id="uD1R6oR0ZTYKcdYJKy-3-9" value="Truck" style="swimlane;fontStyle=1;align=center;verticalAlign=top;childLayout=stackLayout;horizontal=1;startSize=26;horizontalStack=0;resizeParent=1;resizeParentMax=0;resizeLast=0;collapsible=1;marginBottom=0;whiteSpace=wrap;html=1;" vertex="1" parent="1">
          <mxGeometry x="590" y="290" width="160" height="158" as="geometry" />
        </mxCell>
        <mxCell id="uD1R6oR0ZTYKcdYJKy-3-10" value="flakAngle: int&lt;div&gt;maxAngle: int&lt;/div&gt;" style="text;strokeColor=none;fillColor=none;align=left;verticalAlign=top;spacingLeft=4;spacingRight=4;overflow=hidden;rotatable=0;points=[[0,0.5],[1,0.5]];portConstraint=eastwest;whiteSpace=wrap;html=1;" vertex="1" parent="uD1R6oR0ZTYKcdYJKy-3-9">
          <mxGeometry y="26" width="160" height="44" as="geometry" />
        </mxCell>
        <mxCell id="uD1R6oR0ZTYKcdYJKy-3-11" value="" style="line;strokeWidth=1;fillColor=none;align=left;verticalAlign=middle;spacingTop=-1;spacingLeft=3;spacingRight=3;rotatable=0;labelPosition=right;points=[];portConstraint=eastwest;strokeColor=inherit;" vertex="1" parent="uD1R6oR0ZTYKcdYJKy-3-9">
          <mxGeometry y="70" width="160" height="8" as="geometry" />
        </mxCell>
        <mxCell id="uD1R6oR0ZTYKcdYJKy-3-12" value="flakTippas: void&lt;div&gt;flakSankas: void&lt;/div&gt;&lt;div&gt;&lt;br&gt;&lt;/div&gt;" style="text;strokeColor=none;fillColor=none;align=left;verticalAlign=top;spacingLeft=4;spacingRight=4;overflow=hidden;rotatable=0;points=[[0,0.5],[1,0.5]];portConstraint=eastwest;whiteSpace=wrap;html=1;" vertex="1" parent="uD1R6oR0ZTYKcdYJKy-3-9">
          <mxGeometry y="78" width="160" height="80" as="geometry" />
        </mxCell>
        <mxCell id="uD1R6oR0ZTYKcdYJKy-3-13" value="Saab95&lt;div&gt;&lt;br&gt;&lt;/div&gt;" style="swimlane;fontStyle=1;align=center;verticalAlign=top;childLayout=stackLayout;horizontal=1;startSize=26;horizontalStack=0;resizeParent=1;resizeParentMax=0;resizeLast=0;collapsible=1;marginBottom=0;whiteSpace=wrap;html=1;" vertex="1" parent="1">
          <mxGeometry x="40" y="410" width="160" height="120" as="geometry" />
        </mxCell>
        <mxCell id="uD1R6oR0ZTYKcdYJKy-3-42" value="Extends" style="endArrow=block;endSize=16;endFill=0;html=1;rounded=0;" edge="1" parent="uD1R6oR0ZTYKcdYJKy-3-13">
          <mxGeometry width="160" relative="1" as="geometry">
            <mxPoint x="50" as="sourcePoint" />
            <mxPoint x="110" y="-60" as="targetPoint" />
          </mxGeometry>
        </mxCell>
        <mxCell id="uD1R6oR0ZTYKcdYJKy-3-14" value="turboOn: boolean" style="text;strokeColor=none;fillColor=none;align=left;verticalAlign=top;spacingLeft=4;spacingRight=4;overflow=hidden;rotatable=0;points=[[0,0.5],[1,0.5]];portConstraint=eastwest;whiteSpace=wrap;html=1;" vertex="1" parent="uD1R6oR0ZTYKcdYJKy-3-13">
          <mxGeometry y="26" width="160" height="26" as="geometry" />
        </mxCell>
        <mxCell id="uD1R6oR0ZTYKcdYJKy-3-15" value="" style="line;strokeWidth=1;fillColor=none;align=left;verticalAlign=middle;spacingTop=-1;spacingLeft=3;spacingRight=3;rotatable=0;labelPosition=right;points=[];portConstraint=eastwest;strokeColor=inherit;" vertex="1" parent="uD1R6oR0ZTYKcdYJKy-3-13">
          <mxGeometry y="52" width="160" height="8" as="geometry" />
        </mxCell>
        <mxCell id="uD1R6oR0ZTYKcdYJKy-3-16" value="speedFactor: double&lt;div&gt;setTurboOn: void&lt;/div&gt;&lt;div&gt;setTurboOff: void&lt;br&gt;&lt;/div&gt;" style="text;strokeColor=none;fillColor=none;align=left;verticalAlign=top;spacingLeft=4;spacingRight=4;overflow=hidden;rotatable=0;points=[[0,0.5],[1,0.5]];portConstraint=eastwest;whiteSpace=wrap;html=1;" vertex="1" parent="uD1R6oR0ZTYKcdYJKy-3-13">
          <mxGeometry y="60" width="160" height="60" as="geometry" />
        </mxCell>
        <mxCell id="uD1R6oR0ZTYKcdYJKy-3-17" value="Volvo240" style="swimlane;fontStyle=1;align=center;verticalAlign=top;childLayout=stackLayout;horizontal=1;startSize=26;horizontalStack=0;resizeParent=1;resizeParentMax=0;resizeLast=0;collapsible=1;marginBottom=0;whiteSpace=wrap;html=1;" vertex="1" parent="1">
          <mxGeometry x="240" y="410" width="160" height="86" as="geometry" />
        </mxCell>
        <mxCell id="uD1R6oR0ZTYKcdYJKy-3-43" value="Extends" style="endArrow=block;endSize=16;endFill=0;html=1;rounded=0;entryX=0.75;entryY=1;entryDx=0;entryDy=0;" edge="1" parent="uD1R6oR0ZTYKcdYJKy-3-17" target="uD1R6oR0ZTYKcdYJKy-3-5">
          <mxGeometry width="160" relative="1" as="geometry">
            <mxPoint x="60" as="sourcePoint" />
            <mxPoint x="4.960000000000036" y="-87.99800000000005" as="targetPoint" />
          </mxGeometry>
        </mxCell>
        <mxCell id="uD1R6oR0ZTYKcdYJKy-3-49" value="Text" style="edgeLabel;html=1;align=center;verticalAlign=middle;resizable=0;points=[];" vertex="1" connectable="0" parent="uD1R6oR0ZTYKcdYJKy-3-43">
          <mxGeometry x="0.6135" y="-8" relative="1" as="geometry">
            <mxPoint as="offset" />
          </mxGeometry>
        </mxCell>
        <mxCell id="uD1R6oR0ZTYKcdYJKy-3-18" value="trimFactor: double" style="text;strokeColor=none;fillColor=none;align=left;verticalAlign=top;spacingLeft=4;spacingRight=4;overflow=hidden;rotatable=0;points=[[0,0.5],[1,0.5]];portConstraint=eastwest;whiteSpace=wrap;html=1;" vertex="1" parent="uD1R6oR0ZTYKcdYJKy-3-17">
          <mxGeometry y="26" width="160" height="26" as="geometry" />
        </mxCell>
        <mxCell id="uD1R6oR0ZTYKcdYJKy-3-19" value="" style="line;strokeWidth=1;fillColor=none;align=left;verticalAlign=middle;spacingTop=-1;spacingLeft=3;spacingRight=3;rotatable=0;labelPosition=right;points=[];portConstraint=eastwest;strokeColor=inherit;" vertex="1" parent="uD1R6oR0ZTYKcdYJKy-3-17">
          <mxGeometry y="52" width="160" height="8" as="geometry" />
        </mxCell>
        <mxCell id="uD1R6oR0ZTYKcdYJKy-3-20" value="speedFactor: double" style="text;strokeColor=none;fillColor=none;align=left;verticalAlign=top;spacingLeft=4;spacingRight=4;overflow=hidden;rotatable=0;points=[[0,0.5],[1,0.5]];portConstraint=eastwest;whiteSpace=wrap;html=1;" vertex="1" parent="uD1R6oR0ZTYKcdYJKy-3-17">
          <mxGeometry y="60" width="160" height="26" as="geometry" />
        </mxCell>
        <mxCell id="uD1R6oR0ZTYKcdYJKy-3-21" value="Scania" style="swimlane;fontStyle=1;align=center;verticalAlign=top;childLayout=stackLayout;horizontal=1;startSize=26;horizontalStack=0;resizeParent=1;resizeParentMax=0;resizeLast=0;collapsible=1;marginBottom=0;whiteSpace=wrap;html=1;" vertex="1" parent="1">
          <mxGeometry x="490" y="496" width="160" height="86" as="geometry" />
        </mxCell>
        <mxCell id="uD1R6oR0ZTYKcdYJKy-3-44" value="Extends" style="endArrow=block;endSize=16;endFill=0;html=1;rounded=0;entryX=0.25;entryY=1.077;entryDx=0;entryDy=0;entryPerimeter=0;" edge="1" parent="uD1R6oR0ZTYKcdYJKy-3-21" target="uD1R6oR0ZTYKcdYJKy-3-12">
          <mxGeometry width="160" relative="1" as="geometry">
            <mxPoint x="50" as="sourcePoint" />
            <mxPoint x="210" as="targetPoint" />
          </mxGeometry>
        </mxCell>
        <mxCell id="uD1R6oR0ZTYKcdYJKy-3-22" value="+ field: type" style="text;strokeColor=none;fillColor=none;align=left;verticalAlign=top;spacingLeft=4;spacingRight=4;overflow=hidden;rotatable=0;points=[[0,0.5],[1,0.5]];portConstraint=eastwest;whiteSpace=wrap;html=1;" vertex="1" parent="uD1R6oR0ZTYKcdYJKy-3-21">
          <mxGeometry y="26" width="160" height="26" as="geometry" />
        </mxCell>
        <mxCell id="uD1R6oR0ZTYKcdYJKy-3-23" value="" style="line;strokeWidth=1;fillColor=none;align=left;verticalAlign=middle;spacingTop=-1;spacingLeft=3;spacingRight=3;rotatable=0;labelPosition=right;points=[];portConstraint=eastwest;strokeColor=inherit;" vertex="1" parent="uD1R6oR0ZTYKcdYJKy-3-21">
          <mxGeometry y="52" width="160" height="8" as="geometry" />
        </mxCell>
        <mxCell id="uD1R6oR0ZTYKcdYJKy-3-24" value="+ method(type): type" style="text;strokeColor=none;fillColor=none;align=left;verticalAlign=top;spacingLeft=4;spacingRight=4;overflow=hidden;rotatable=0;points=[[0,0.5],[1,0.5]];portConstraint=eastwest;whiteSpace=wrap;html=1;" vertex="1" parent="uD1R6oR0ZTYKcdYJKy-3-21">
          <mxGeometry y="60" width="160" height="26" as="geometry" />
        </mxCell>
        <mxCell id="uD1R6oR0ZTYKcdYJKy-3-25" value="CarTransport" style="swimlane;fontStyle=1;align=center;verticalAlign=top;childLayout=stackLayout;horizontal=1;startSize=26;horizontalStack=0;resizeParent=1;resizeParentMax=0;resizeLast=0;collapsible=1;marginBottom=0;whiteSpace=wrap;html=1;" vertex="1" parent="1">
          <mxGeometry x="670" y="496" width="160" height="150" as="geometry" />
        </mxCell>
        <mxCell id="uD1R6oR0ZTYKcdYJKy-3-45" value="Extends" style="endArrow=block;endSize=16;endFill=0;html=1;rounded=0;entryX=0.744;entryY=1.077;entryDx=0;entryDy=0;entryPerimeter=0;" edge="1" parent="uD1R6oR0ZTYKcdYJKy-3-25" target="uD1R6oR0ZTYKcdYJKy-3-12">
          <mxGeometry width="160" relative="1" as="geometry">
            <mxPoint x="40" as="sourcePoint" />
            <mxPoint x="200" as="targetPoint" />
          </mxGeometry>
        </mxCell>
        <mxCell id="uD1R6oR0ZTYKcdYJKy-3-26" value="carryList:Stack&amp;lt;Vehicle&amp;gt;&lt;div&gt;max_cars: int&lt;/div&gt;&lt;div&gt;&lt;br&gt;&lt;/div&gt;" style="text;strokeColor=none;fillColor=none;align=left;verticalAlign=top;spacingLeft=4;spacingRight=4;overflow=hidden;rotatable=0;points=[[0,0.5],[1,0.5]];portConstraint=eastwest;whiteSpace=wrap;html=1;" vertex="1" parent="uD1R6oR0ZTYKcdYJKy-3-25">
          <mxGeometry y="26" width="160" height="44" as="geometry" />
        </mxCell>
        <mxCell id="uD1R6oR0ZTYKcdYJKy-3-27" value="" style="line;strokeWidth=1;fillColor=none;align=left;verticalAlign=middle;spacingTop=-1;spacingLeft=3;spacingRight=3;rotatable=0;labelPosition=right;points=[];portConstraint=eastwest;strokeColor=inherit;" vertex="1" parent="uD1R6oR0ZTYKcdYJKy-3-25">
          <mxGeometry y="70" width="160" height="8" as="geometry" />
        </mxCell>
        <mxCell id="uD1R6oR0ZTYKcdYJKy-3-28" value="rampOpen: void&lt;div&gt;rampClose: void&lt;/div&gt;&lt;div&gt;loadCar: void&lt;/div&gt;&lt;div&gt;unloadCar: void&lt;/div&gt;&lt;div&gt;&lt;br&gt;&lt;/div&gt;" style="text;strokeColor=none;fillColor=none;align=left;verticalAlign=top;spacingLeft=4;spacingRight=4;overflow=hidden;rotatable=0;points=[[0,0.5],[1,0.5]];portConstraint=eastwest;whiteSpace=wrap;html=1;" vertex="1" parent="uD1R6oR0ZTYKcdYJKy-3-25">
          <mxGeometry y="78" width="160" height="72" as="geometry" />
        </mxCell>
        <mxCell id="uD1R6oR0ZTYKcdYJKy-3-29" value="Workshop" style="swimlane;fontStyle=1;align=center;verticalAlign=top;childLayout=stackLayout;horizontal=1;startSize=26;horizontalStack=0;resizeParent=1;resizeParentMax=0;resizeLast=0;collapsible=1;marginBottom=0;whiteSpace=wrap;html=1;" vertex="1" parent="1">
          <mxGeometry x="640" y="68" width="160" height="168" as="geometry" />
        </mxCell>
        <mxCell id="uD1R6oR0ZTYKcdYJKy-3-30" value="maxCars: int&lt;div&gt;carList: ArrayList&amp;lt;T&amp;gt;&lt;/div&gt;" style="text;strokeColor=none;fillColor=none;align=left;verticalAlign=top;spacingLeft=4;spacingRight=4;overflow=hidden;rotatable=0;points=[[0,0.5],[1,0.5]];portConstraint=eastwest;whiteSpace=wrap;html=1;" vertex="1" parent="uD1R6oR0ZTYKcdYJKy-3-29">
          <mxGeometry y="26" width="160" height="54" as="geometry" />
        </mxCell>
        <mxCell id="uD1R6oR0ZTYKcdYJKy-3-38" value="Extends" style="endArrow=block;endSize=16;endFill=0;html=1;rounded=0;" edge="1" parent="uD1R6oR0ZTYKcdYJKy-3-29" target="uD1R6oR0ZTYKcdYJKy-3-2">
          <mxGeometry width="160" relative="1" as="geometry">
            <mxPoint y="42" as="sourcePoint" />
            <mxPoint x="160" y="42" as="targetPoint" />
          </mxGeometry>
        </mxCell>
        <mxCell id="uD1R6oR0ZTYKcdYJKy-3-31" value="" style="line;strokeWidth=1;fillColor=none;align=left;verticalAlign=middle;spacingTop=-1;spacingLeft=3;spacingRight=3;rotatable=0;labelPosition=right;points=[];portConstraint=eastwest;strokeColor=inherit;" vertex="1" parent="uD1R6oR0ZTYKcdYJKy-3-29">
          <mxGeometry y="80" width="160" height="8" as="geometry" />
        </mxCell>
        <mxCell id="uD1R6oR0ZTYKcdYJKy-3-32" value="acceptCar: void&lt;div&gt;print_cars: void&lt;/div&gt;&lt;div&gt;removeCar: void&lt;/div&gt;&lt;div&gt;&lt;br&gt;&lt;/div&gt;" style="text;strokeColor=none;fillColor=none;align=left;verticalAlign=top;spacingLeft=4;spacingRight=4;overflow=hidden;rotatable=0;points=[[0,0.5],[1,0.5]];portConstraint=eastwest;whiteSpace=wrap;html=1;" vertex="1" parent="uD1R6oR0ZTYKcdYJKy-3-29">
          <mxGeometry y="88" width="160" height="80" as="geometry" />
        </mxCell>
        <mxCell id="uD1R6oR0ZTYKcdYJKy-3-36" value="«interface»&lt;br&gt;&lt;b&gt;Movable&lt;/b&gt;" style="html=1;whiteSpace=wrap;" vertex="1" parent="1">
          <mxGeometry x="100" y="50" width="110" height="100" as="geometry" />
        </mxCell>
        <mxCell id="uD1R6oR0ZTYKcdYJKy-3-41" value="Extends" style="endArrow=block;endSize=16;endFill=0;html=1;rounded=0;entryX=0.613;entryY=0.962;entryDx=0;entryDy=0;entryPerimeter=0;exitX=0.613;exitY=0.019;exitDx=0;exitDy=0;exitPerimeter=0;" edge="1" parent="1" source="uD1R6oR0ZTYKcdYJKy-3-9">
          <mxGeometry width="160" relative="1" as="geometry">
            <mxPoint x="738.36" y="255.02" as="sourcePoint" />
            <mxPoint x="539.9999999999999" y="230.00400000000005" as="targetPoint" />
          </mxGeometry>
        </mxCell>
      </root>
    </mxGraphModel>
  </diagram>
</mxfile>
